<?xml version="1.0" standalone="no"?>
<!DOCTYPE svg PUBLIC "-//W3C//DTD SVG 20010904//EN"
 "http://www.w3.org/TR/2001/REC-SVG-20010904/DTD/svg10.dtd">
<svg version="1.0" xmlns="http://www.w3.org/2000/svg"
 width="512.000000pt" height="512.000000pt" viewBox="0 0 512.000000 512.000000"
 preserveAspectRatio="xMidYMid meet">
<metadata>
Created by potrace 1.11, written by Peter Selinger 2001-2013
</metadata>
<g transform="translate(0.000000,512.000000) scale(0.100000,-0.100000)"
fill="#000000" stroke="none">
<path d="M2620 4063 c-372 -851 -384 -880 -384 -942 l-1 -65 228 -78 c160 -54
229 -74 232 -65 29 85 99 262 156 398 l72 169 72 0 73 0 -78 -197 c-148 -377
-411 -1028 -418 -1035 -4 -4 -62 -8 -130 -9 l-122 -2 -55 73 c-31 41 -61 78
-68 82 -6 4 -73 8 -148 8 l-136 0 -7 39 c-7 45 -44 95 -89 118 -23 11 -46 14
-89 9 -41 -4 -68 -1 -90 9 -18 8 -98 33 -178 56 l-145 42 -107 100 -108 100 0
171 c0 192 -7 231 -53 283 -48 55 -78 63 -229 63 -177 -1 -224 -21 -263 -113
-13 -31 -15 -117 -15 -619 0 -546 2 -586 19 -624 10 -22 29 -49 43 -60 l24
-19 -62 -331 -61 -331 -213 -314 -212 -314 5 -49 c4 -42 10 -55 42 -84 34 -32
41 -34 87 -30 38 4 57 12 78 34 15 16 124 173 242 349 l214 320 33 185 c19
102 37 193 40 202 4 12 88 -191 231 -559 124 -317 234 -591 245 -607 12 -19
37 -37 62 -45 35 -13 46 -13 79 0 46 18 84 69 84 114 0 19 -116 330 -275 736
-160 410 -270 706 -264 708 22 7 80 65 97 95 14 26 18 70 22 260 l5 229 46
-39 c40 -35 67 -46 222 -92 96 -29 190 -55 209 -59 18 -3 50 -20 71 -36 52
-42 127 -49 177 -15 33 22 42 23 177 20 l143 -4 47 -61 47 -61 92 -483 92
-484 -60 -57 c-147 -139 -156 -264 -22 -301 27 -8 337 -11 997 -11 l957 0 0
45 0 45 -922 1 c-851 0 -1006 4 -1025 23 -13 12 29 75 88 131 l58 55 914 0
c858 0 915 1 929 18 15 17 308 1007 308 1040 0 25 -20 42 -47 42 -13 0 -23 2
-23 3 0 2 54 138 121 303 66 164 129 320 139 345 l19 46 -214 87 c-118 47
-218 86 -224 86 -8 0 -91 -203 -291 -712 l-61 -158 -74 0 -73 0 -52 163 c-73
228 -330 1060 -330 1069 0 5 9 8 19 8 20 0 59 -87 183 -410 33 -85 62 -158 64
-161 2 -4 113 31 246 76 l243 82 3 44 c2 39 -33 127 -286 714 -159 369 -332
769 -384 890 l-94 220 -265 3 -266 2 -383 -877z m750 40 l106 -258 -224 -3
c-124 -1 -226 -1 -228 1 -1 1 48 125 109 275 82 200 115 269 121 259 5 -8 57
-131 116 -274z m25 -1598 c41 -131 75 -245 75 -252 0 -10 -40 -13 -180 -13
-99 0 -180 2 -180 5 0 15 204 519 206 510 2 -6 37 -118 79 -250z m-881 -402
c-8 -21 -28 -69 -44 -108 -16 -38 -36 -88 -46 -110 l-17 -40 -23 120 c-13 66
-25 132 -28 148 l-5 27 89 0 90 0 -16 -37z m916 30 c0 -5 41 -201 90 -438 50
-236 90 -435 90 -442 0 -10 -35 -13 -158 -13 l-157 0 -89 428 c-49 235 -92
437 -94 450 l-4 22 161 0 c88 0 161 -3 161 -7z m581 -38 c-9 -25 -19 -45 -22
-45 -5 0 -29 68 -29 84 0 3 15 6 34 6 l34 0 -17 -45z m473 -135 c-45 -150 -45
-151 -53 -120 -5 17 7 57 38 132 24 60 45 107 47 106 1 -2 -13 -55 -32 -118z
m-1369 -330 c41 -201 75 -371 75 -377 0 -10 -38 -13 -155 -13 -117 0 -155 3
-155 13 0 6 -18 94 -39 194 l-38 183 29 -3 c30 -2 30 -2 111 202 60 151 83
199 88 185 5 -10 42 -183 84 -384z m569 -97 c42 -149 76 -276 76 -282 0 -6
-10 -11 -23 -11 -21 0 -25 13 -81 283 -33 155 -61 293 -63 307 l-3 25 9 -25
c5 -14 43 -147 85 -297z m-1089 187 c44 -17 85 -37 91 -43 9 -10 95 -401 94
-429 0 -5 -58 -8 -130 -8 -71 0 -130 3 -130 8 0 4 -23 124 -50 266 -28 143
-50 264 -50 268 0 4 21 -1 48 -11 26 -10 83 -33 127 -51z m1779 -78 c5 -28 -7
-81 -47 -217 l-53 -180 -47 -3 c-26 -2 -47 0 -47 5 0 20 174 442 181 437 4 -2
10 -21 13 -42z"/>
<path d="M730 4071 c-94 -31 -168 -96 -211 -186 -24 -49 -29 -73 -29 -132 0
-138 65 -245 183 -302 83 -40 139 -47 218 -27 105 27 182 90 228 186 37 79 37
191 0 271 -59 125 -155 190 -288 195 -42 2 -87 0 -101 -5z"/>
<path d="M2565 766 c-41 -18 -83 -69 -91 -111 -25 -137 116 -242 235 -174 59
33 76 64 76 139 0 49 -5 71 -20 92 -45 60 -132 84 -200 54z m122 -88 c30 -28
31 -83 1 -115 -47 -50 -138 -12 -138 57 0 68 87 105 137 58z"/>
<path d="M3975 766 c-41 -18 -83 -69 -91 -111 -25 -137 116 -242 235 -174 59
33 76 64 76 139 0 49 -5 71 -20 92 -45 60 -132 84 -200 54z m122 -88 c30 -28
31 -83 1 -115 -47 -50 -138 -12 -138 57 0 68 87 105 137 58z"/>
</g>
</svg>
