
<svg width="80px" height="200px" viewBox="0 0 80 200" version="1.1" xmlns="http://www.w3.org/2000/svg" xmlnsXlink="http://www.w3.org/1999/xlink">
    <title>Checkout middle</title>
    <g id="Checkout-middle" stroke="none" stroke-width="1" fill="none" fill-rule="evenodd">
        <rect id="Rectangle" fill="#AA7942" x="0" y="20" width="20" height="120"></rect>
        <rect id="Rectangle" fill="#AA7942" x="60" y="20" width="20" height="120"></rect>
        <rect id="Rectangle" fill="#D1995A" x="20" y="20" width="10" height="120"></rect>
        <rect id="Rectangle" fill="#D1995A" x="0" y="140" width="30" height="10"></rect>
        <path d="M60,140 C60,140 63.3333333,143.333333 70,150 L70,140 C63.3333333,140 60,140 60,140 Z" id="Path" fill="#D1995A"></path>
        <rect id="Rectangle" fill="#D1995A" x="70" y="140" width="10" height="10"></rect>
        <rect id="Rectangle" fill="#656565" x="10" y="180" width="50" height="20"></rect>
        <rect id="Rectangle" stroke="#979797" fill="#D8D8D8" x="15.5" y="185.5" width="39" height="9"></rect>
        <rect id="Rectangle" fill="#47C135" x="60" y="180" width="17" height="19" rx="1"></rect>
        <rect id="Rectangle" fill="#5891A9" x="62" y="178" width="5" height="10" rx="1"></rect>
        <rect id="Rectangle" fill="#5891A9" x="70" y="178" width="5" height="10" rx="1"></rect>
        <circle id="Oval" fill="#A57D64" cx="68.5" cy="190.5" r="8.5"></circle>
    </g>
</svg>