
<svg width="80px" height="200px" x={this.props.x} version="1.1" xmlns="http://www.w3.org/2000/svg" xmlnsXlink="http://www.w3.org/1999/xlink">
    <title>Top middle</title>
    <g id="Top-Middle" stroke="none" stroke-width="1" fill="none" fill-rule="evenodd">
        <g id="Top-middle">
            <rect id="Rectangle" fill="#AA7942" x="0" y="60" width="20" height="120"></rect>
            <rect id="Rectangle" fill="#AA7942" x="60" y="60" width="20" height="120"></rect>
            <rect id="Rectangle" fill="#AA7942" x="0" y="0" width="80" height="20"></rect>
            <rect id="Rectangle" fill="#D1995A" x="0" y="20" width="80" height="10"></rect>
            <rect id="Rectangle" fill="#D1995A" x="0" y="180" width="30" height="10"></rect>
            <rect id="Rectangle" fill="#D1995A" x="20" y="69" width="10" height="111"></rect>
            <path d="M60,180 C60,180 63.3333333,183.333333 70,190 L70,180 C63.3333333,180 60,180 60,180 Z" id="Path" fill="#D1995A"></path>
            <path d="M20,60 C20,60 23.3333333,63.3333333 30,70 L30,60 C23.3333333,60 20,60 20,60 Z" id="Path" fill="#D1995A" transform="translate(25.000000, 65.000000) scale(-1, -1) translate(-25.000000, -65.000000) "></path>
            <rect id="Rectangle" fill="#D1995A" x="70" y="180" width="10" height="10"></rect>
        </g>
    </g>
</svg>